<?xml version="1.0" encoding="UTF-8" standalone="no"?>
<!DOCTYPE svg PUBLIC "-//W3C//DTD SVG 1.1//EN"
 "http://www.w3.org/Graphics/SVG/1.1/DTD/svg11.dtd">
<!-- Generated by graphviz version 14.1.1 (20251213.1925)
 -->
<!-- Pages: 1 -->
<svg width="868pt" height="581pt"
 viewBox="0.00 0.00 868.00 581.00" xmlns="http://www.w3.org/2000/svg" xmlns:xlink="http://www.w3.org/1999/xlink">
<g id="graph0" class="graph" transform="scale(1 1) rotate(0) translate(4 577.21)">
<polygon fill="white" stroke="none" points="-4,4 -4,-577.21 863.5,-577.21 863.5,4 -4,4"/>
<g id="clust1" class="cluster">
<title>cluster_legend</title>
<polygon fill="none" stroke="black" stroke-dasharray="5,2" points="213.5,-488.71 213.5,-565.21 851.5,-565.21 851.5,-488.71 213.5,-488.71"/>
<text xml:space="preserve" text-anchor="middle" x="532.5" y="-547.91" font-family="Times New Roman,serif" font-size="14.00">Legend</text>
</g>
<!-- UserInput -->
<g id="node1" class="node">
<title>UserInput</title>
<path fill="lightgreen" stroke="black" d="M192.12,-535.21C192.12,-535.21 116.88,-535.21 116.88,-535.21 110.88,-535.21 104.88,-529.21 104.88,-523.21 104.88,-523.21 104.88,-506.21 104.88,-506.21 104.88,-500.21 110.88,-494.21 116.88,-494.21 116.88,-494.21 192.12,-494.21 192.12,-494.21 198.12,-494.21 204.12,-500.21 204.12,-506.21 204.12,-506.21 204.12,-523.21 204.12,-523.21 204.12,-529.21 198.12,-535.21 192.12,-535.21"/>
<text xml:space="preserve" text-anchor="middle" x="154.5" y="-517.91" font-family="Times New Roman,serif" font-size="14.00">UserInputNode</text>
<text xml:space="preserve" text-anchor="middle" x="154.5" y="-501.41" font-family="Times New Roman,serif" font-size="14.00">(Get Topic)</text>
</g>
<!-- Coordinator -->
<g id="node2" class="node">
<title>Coordinator</title>
<path fill="lightyellow" stroke="black" d="M197.75,-441.71C197.75,-441.71 111.25,-441.71 111.25,-441.71 105.25,-441.71 99.25,-435.71 99.25,-429.71 99.25,-429.71 99.25,-412.71 99.25,-412.71 99.25,-406.71 105.25,-400.71 111.25,-400.71 111.25,-400.71 197.75,-400.71 197.75,-400.71 203.75,-400.71 209.75,-406.71 209.75,-412.71 209.75,-412.71 209.75,-429.71 209.75,-429.71 209.75,-435.71 203.75,-441.71 197.75,-441.71"/>
<text xml:space="preserve" text-anchor="middle" x="154.5" y="-424.41" font-family="Times New Roman,serif" font-size="14.00">CoordinatorNode</text>
<text xml:space="preserve" text-anchor="middle" x="154.5" y="-407.91" font-family="Times New Roman,serif" font-size="14.00">(Turn Control)</text>
</g>
<!-- UserInput&#45;&gt;Coordinator -->
<g id="edge1" class="edge">
<title>UserInput&#45;&gt;Coordinator</title>
<path fill="none" stroke="black" d="M154.5,-493.86C154.5,-481.99 154.5,-466.65 154.5,-453.21"/>
<polygon fill="black" stroke="black" points="158,-453.54 154.5,-443.54 151,-453.54 158,-453.54"/>
<text xml:space="preserve" text-anchor="middle" x="168" y="-462.91" font-family="Times New Roman,serif" font-size="14.00">topic</text>
</g>
<!-- AgentA -->
<g id="node3" class="node">
<title>AgentA</title>
<path fill="lightcoral" stroke="black" d="M79,-348.21C79,-348.21 12,-348.21 12,-348.21 6,-348.21 0,-342.21 0,-336.21 0,-336.21 0,-319.21 0,-319.21 0,-313.21 6,-307.21 12,-307.21 12,-307.21 79,-307.21 79,-307.21 85,-307.21 91,-313.21 91,-319.21 91,-319.21 91,-336.21 91,-336.21 91,-342.21 85,-348.21 79,-348.21"/>
<text xml:space="preserve" text-anchor="middle" x="45.5" y="-330.91" font-family="Times New Roman,serif" font-size="14.00">AgentA Node</text>
<text xml:space="preserve" text-anchor="middle" x="45.5" y="-314.41" font-family="Times New Roman,serif" font-size="14.00">(Scientist)</text>
</g>
<!-- Coordinator&#45;&gt;AgentA -->
<g id="edge2" class="edge">
<title>Coordinator&#45;&gt;AgentA</title>
<path fill="none" stroke="black" d="M99.03,-401.57C89.15,-396.53 79.55,-390.3 71.75,-382.71 64.97,-376.12 59.71,-367.42 55.73,-358.93"/>
<polygon fill="black" stroke="black" points="59.02,-357.75 51.94,-349.87 52.56,-360.44 59.02,-357.75"/>
<text xml:space="preserve" text-anchor="middle" x="111.12" y="-369.41" font-family="Times New Roman,serif" font-size="14.00">if AgentA turn</text>
</g>
<!-- AgentB -->
<g id="node4" class="node">
<title>AgentB</title>
<path fill="lightcoral" stroke="black" d="M188,-348.21C188,-348.21 121,-348.21 121,-348.21 115,-348.21 109,-342.21 109,-336.21 109,-336.21 109,-319.21 109,-319.21 109,-313.21 115,-307.21 121,-307.21 121,-307.21 188,-307.21 188,-307.21 194,-307.21 200,-313.21 200,-319.21 200,-319.21 200,-336.21 200,-336.21 200,-342.21 194,-348.21 188,-348.21"/>
<text xml:space="preserve" text-anchor="middle" x="154.5" y="-330.91" font-family="Times New Roman,serif" font-size="14.00">AgentB Node</text>
<text xml:space="preserve" text-anchor="middle" x="154.5" y="-314.41" font-family="Times New Roman,serif" font-size="14.00">(Philosopher)</text>
</g>
<!-- Coordinator&#45;&gt;AgentB -->
<g id="edge3" class="edge">
<title>Coordinator&#45;&gt;AgentB</title>
<path fill="none" stroke="black" d="M154.5,-400.36C154.5,-388.49 154.5,-373.15 154.5,-359.71"/>
<polygon fill="black" stroke="black" points="158,-360.04 154.5,-350.04 151,-360.04 158,-360.04"/>
<text xml:space="preserve" text-anchor="middle" x="193.88" y="-369.41" font-family="Times New Roman,serif" font-size="14.00">if AgentB turn</text>
</g>
<!-- Judge -->
<g id="node7" class="node">
<title>Judge</title>
<path fill="#eedd82" stroke="black" d="M335.12,-348.21C335.12,-348.21 229.88,-348.21 229.88,-348.21 223.88,-348.21 217.88,-342.21 217.88,-336.21 217.88,-336.21 217.88,-319.21 217.88,-319.21 217.88,-313.21 223.88,-307.21 229.88,-307.21 229.88,-307.21 335.12,-307.21 335.12,-307.21 341.12,-307.21 347.12,-313.21 347.12,-319.21 347.12,-319.21 347.12,-336.21 347.12,-336.21 347.12,-342.21 341.12,-348.21 335.12,-348.21"/>
<text xml:space="preserve" text-anchor="middle" x="282.5" y="-330.91" font-family="Times New Roman,serif" font-size="14.00">JudgeNode</text>
<text xml:space="preserve" text-anchor="middle" x="282.5" y="-314.41" font-family="Times New Roman,serif" font-size="14.00">(Evaluate &amp; Decide)</text>
</g>
<!-- Coordinator&#45;&gt;Judge -->
<g id="edge4" class="edge">
<title>Coordinator&#45;&gt;Judge</title>
<path fill="none" stroke="black" d="M207.89,-400.41C218.2,-395.42 228.56,-389.51 237.5,-382.71 246.73,-375.69 255.3,-366.45 262.44,-357.59"/>
<polygon fill="black" stroke="black" points="265.09,-359.88 268.4,-349.82 259.54,-355.62 265.09,-359.88"/>
<text xml:space="preserve" text-anchor="middle" x="308.37" y="-369.41" font-family="Times New Roman,serif" font-size="14.00">if round 8 complete</text>
</g>
<!-- Memory -->
<g id="node5" class="node">
<title>Memory</title>
<path fill="lightcyan" stroke="black" d="M201.12,-254.71C201.12,-254.71 107.88,-254.71 107.88,-254.71 101.88,-254.71 95.88,-248.71 95.88,-242.71 95.88,-242.71 95.88,-225.71 95.88,-225.71 95.88,-219.71 101.88,-213.71 107.88,-213.71 107.88,-213.71 201.12,-213.71 201.12,-213.71 207.12,-213.71 213.12,-219.71 213.12,-225.71 213.12,-225.71 213.12,-242.71 213.12,-242.71 213.12,-248.71 207.12,-254.71 201.12,-254.71"/>
<text xml:space="preserve" text-anchor="middle" x="154.5" y="-237.41" font-family="Times New Roman,serif" font-size="14.00">MemoryNode</text>
<text xml:space="preserve" text-anchor="middle" x="154.5" y="-220.91" font-family="Times New Roman,serif" font-size="14.00">(Store Arguments)</text>
</g>
<!-- AgentA&#45;&gt;Memory -->
<g id="edge5" class="edge">
<title>AgentA&#45;&gt;Memory</title>
<path fill="none" stroke="black" d="M63.35,-306.76C73.3,-296.13 86.18,-283.13 98.75,-272.71 103.24,-268.99 108.1,-265.29 113.01,-261.75"/>
<polygon fill="black" stroke="black" points="115.01,-264.63 121.21,-256.04 111,-258.89 115.01,-264.63"/>
<text xml:space="preserve" text-anchor="middle" x="124.62" y="-275.91" font-family="Times New Roman,serif" font-size="14.00">argument</text>
</g>
<!-- AgentB&#45;&gt;Memory -->
<g id="edge6" class="edge">
<title>AgentB&#45;&gt;Memory</title>
<path fill="none" stroke="black" d="M154.5,-306.86C154.5,-294.99 154.5,-279.65 154.5,-266.21"/>
<polygon fill="black" stroke="black" points="158,-266.54 154.5,-256.54 151,-266.54 158,-266.54"/>
<text xml:space="preserve" text-anchor="middle" x="180.38" y="-275.91" font-family="Times New Roman,serif" font-size="14.00">argument</text>
</g>
<!-- Logger -->
<g id="node6" class="node">
<title>Logger</title>
<path fill="lavender" stroke="black" d="M261.75,-161.21C261.75,-161.21 175.25,-161.21 175.25,-161.21 169.25,-161.21 163.25,-155.21 163.25,-149.21 163.25,-149.21 163.25,-132.21 163.25,-132.21 163.25,-126.21 169.25,-120.21 175.25,-120.21 175.25,-120.21 261.75,-120.21 261.75,-120.21 267.75,-120.21 273.75,-126.21 273.75,-132.21 273.75,-132.21 273.75,-149.21 273.75,-149.21 273.75,-155.21 267.75,-161.21 261.75,-161.21"/>
<text xml:space="preserve" text-anchor="middle" x="218.5" y="-143.91" font-family="Times New Roman,serif" font-size="14.00">LoggerNode</text>
<text xml:space="preserve" text-anchor="middle" x="218.5" y="-127.41" font-family="Times New Roman,serif" font-size="14.00">(Log Everything)</text>
</g>
<!-- Memory&#45;&gt;Logger -->
<g id="edge7" class="edge">
<title>Memory&#45;&gt;Logger</title>
<path fill="none" stroke="black" d="M157.32,-213.46C159.58,-202.63 163.57,-189.39 170.5,-179.21 172.97,-175.58 175.91,-172.14 179.09,-168.92"/>
<polygon fill="black" stroke="black" points="181.2,-171.73 186.27,-162.42 176.51,-166.54 181.2,-171.73"/>
<text xml:space="preserve" text-anchor="middle" x="217" y="-182.41" font-family="Times New Roman,serif" font-size="14.00">updated memory</text>
</g>
<!-- Logger&#45;&gt;Coordinator -->
<g id="edge8" class="edge">
<title>Logger&#45;&gt;Coordinator</title>
<path fill="none" stroke="black" d="M262.3,-161.58C284.34,-173.68 309.66,-191.18 325.5,-213.71 369.97,-276.93 416.16,-323.49 366.5,-382.71 348.2,-404.54 276.55,-413.66 221.56,-417.48"/>
<polygon fill="black" stroke="black" points="221.37,-413.98 211.61,-418.12 221.81,-420.97 221.37,-413.98"/>
<text xml:space="preserve" text-anchor="middle" x="405.38" y="-275.91" font-family="Times New Roman,serif" font-size="14.00">next round</text>
</g>
<!-- END -->
<g id="node8" class="node">
<title>END</title>
<ellipse fill="pink" stroke="black" cx="218.5" cy="-33.86" rx="29.86" ry="29.86"/>
<ellipse fill="none" stroke="black" cx="218.5" cy="-33.86" rx="33.86" ry="33.86"/>
<text xml:space="preserve" text-anchor="middle" x="218.5" y="-28.81" font-family="Times New Roman,serif" font-size="14.00">END</text>
</g>
<!-- Logger&#45;&gt;END -->
<g id="edge10" class="edge">
<title>Logger&#45;&gt;END</title>
<path fill="none" stroke="black" d="M218.5,-119.99C218.5,-108.47 218.5,-93.45 218.5,-79.24"/>
<polygon fill="black" stroke="black" points="222,-79.61 218.5,-69.61 215,-79.61 222,-79.61"/>
<text xml:space="preserve" text-anchor="middle" x="243.62" y="-88.91" font-family="Times New Roman,serif" font-size="14.00">complete</text>
</g>
<!-- Judge&#45;&gt;Logger -->
<g id="edge9" class="edge">
<title>Judge&#45;&gt;Logger</title>
<path fill="none" stroke="black" d="M284.32,-307.19C286.18,-277.58 286.11,-220.4 263.5,-179.21 261.63,-175.81 259.32,-172.59 256.74,-169.57"/>
<polygon fill="black" stroke="black" points="259.48,-167.36 249.96,-162.7 254.49,-172.28 259.48,-167.36"/>
<text xml:space="preserve" text-anchor="middle" x="302.49" y="-229.16" font-family="Times New Roman,serif" font-size="14.00">verdict</text>
</g>
<!-- leg1 -->
<g id="node9" class="node">
<title>leg1</title>
<path fill="lightgreen" stroke="black" d="M287.25,-532.71C287.25,-532.71 233.75,-532.71 233.75,-532.71 227.75,-532.71 221.75,-526.71 221.75,-520.71 221.75,-520.71 221.75,-508.71 221.75,-508.71 221.75,-502.71 227.75,-496.71 233.75,-496.71 233.75,-496.71 287.25,-496.71 287.25,-496.71 293.25,-496.71 299.25,-502.71 299.25,-508.71 299.25,-508.71 299.25,-520.71 299.25,-520.71 299.25,-526.71 293.25,-532.71 287.25,-532.71"/>
<text xml:space="preserve" text-anchor="middle" x="260.5" y="-509.66" font-family="Times New Roman,serif" font-size="14.00">Input Node</text>
</g>
<!-- leg2 -->
<g id="node10" class="node">
<title>leg2</title>
<path fill="lightyellow" stroke="black" d="M395.62,-532.71C395.62,-532.71 329.38,-532.71 329.38,-532.71 323.38,-532.71 317.38,-526.71 317.38,-520.71 317.38,-520.71 317.38,-508.71 317.38,-508.71 317.38,-502.71 323.38,-496.71 329.38,-496.71 329.38,-496.71 395.62,-496.71 395.62,-496.71 401.62,-496.71 407.62,-502.71 407.62,-508.71 407.62,-508.71 407.62,-520.71 407.62,-520.71 407.62,-526.71 401.62,-532.71 395.62,-532.71"/>
<text xml:space="preserve" text-anchor="middle" x="362.5" y="-509.66" font-family="Times New Roman,serif" font-size="14.00">Control Node</text>
</g>
<!-- leg3 -->
<g id="node11" class="node">
<title>leg3</title>
<path fill="lightcoral" stroke="black" d="M495.5,-532.71C495.5,-532.71 437.5,-532.71 437.5,-532.71 431.5,-532.71 425.5,-526.71 425.5,-520.71 425.5,-520.71 425.5,-508.71 425.5,-508.71 425.5,-502.71 431.5,-496.71 437.5,-496.71 437.5,-496.71 495.5,-496.71 495.5,-496.71 501.5,-496.71 507.5,-502.71 507.5,-508.71 507.5,-508.71 507.5,-520.71 507.5,-520.71 507.5,-526.71 501.5,-532.71 495.5,-532.71"/>
<text xml:space="preserve" text-anchor="middle" x="466.5" y="-509.66" font-family="Times New Roman,serif" font-size="14.00">Agent Node</text>
</g>
<!-- leg4 -->
<g id="node12" class="node">
<title>leg4</title>
<path fill="lightcyan" stroke="black" d="M603.62,-532.71C603.62,-532.71 537.38,-532.71 537.38,-532.71 531.38,-532.71 525.38,-526.71 525.38,-520.71 525.38,-520.71 525.38,-508.71 525.38,-508.71 525.38,-502.71 531.38,-496.71 537.38,-496.71 537.38,-496.71 603.62,-496.71 603.62,-496.71 609.62,-496.71 615.62,-502.71 615.62,-508.71 615.62,-508.71 615.62,-520.71 615.62,-520.71 615.62,-526.71 609.62,-532.71 603.62,-532.71"/>
<text xml:space="preserve" text-anchor="middle" x="570.5" y="-509.66" font-family="Times New Roman,serif" font-size="14.00">Storage Node</text>
</g>
<!-- leg5 -->
<g id="node13" class="node">
<title>leg5</title>
<path fill="#eedd82" stroke="black" d="M729.25,-532.71C729.25,-532.71 645.75,-532.71 645.75,-532.71 639.75,-532.71 633.75,-526.71 633.75,-520.71 633.75,-520.71 633.75,-508.71 633.75,-508.71 633.75,-502.71 639.75,-496.71 645.75,-496.71 645.75,-496.71 729.25,-496.71 729.25,-496.71 735.25,-496.71 741.25,-502.71 741.25,-508.71 741.25,-508.71 741.25,-520.71 741.25,-520.71 741.25,-526.71 735.25,-532.71 729.25,-532.71"/>
<text xml:space="preserve" text-anchor="middle" x="687.5" y="-509.66" font-family="Times New Roman,serif" font-size="14.00">Evaluation Node</text>
</g>
<!-- leg6 -->
<g id="node14" class="node">
<title>leg6</title>
<path fill="lavender" stroke="black" d="M831.62,-532.71C831.62,-532.71 771.38,-532.71 771.38,-532.71 765.38,-532.71 759.38,-526.71 759.38,-520.71 759.38,-520.71 759.38,-508.71 759.38,-508.71 759.38,-502.71 765.38,-496.71 771.38,-496.71 771.38,-496.71 831.62,-496.71 831.62,-496.71 837.62,-496.71 843.62,-502.71 843.62,-508.71 843.62,-508.71 843.62,-520.71 843.62,-520.71 843.62,-526.71 837.62,-532.71 831.62,-532.71"/>
<text xml:space="preserve" text-anchor="middle" x="801.5" y="-509.66" font-family="Times New Roman,serif" font-size="14.00">Utility Node</text>
</g>
</g>
</svg>
